<svg xmlns="http://www.w3.org/2000/svg" xmlns:xlink="http://www.w3.org/1999/xlink" width="788pt" height="833pt" viewBox="0.00 0.00 788.00 833.00">
<g id="graph0" class="graph" transform="scale(1 1) rotate(0) translate(4 829)">
<title>G</title>
<polygon fill="white" stroke="none" points="-4,4 -4,-829 784,-829 784,4 -4,4"/>
<g id="clust1" class="cluster">
<title>cluster_atomy</title>
<polygon fill="#dbdbdb" stroke="#dbdbdb" points="8,-8 8,-582.6 772,-582.6 772,-8 8,-8"/>
<text xml:space="preserve" text-anchor="middle" x="390" y="-557" font-family="Arial Bold" font-size="24.00" fill="#4b4b4b">ATOMY</text>
<text xml:space="preserve" text-anchor="middle" x="390" y="-528.2" font-family="Arial Bold" font-size="24.00" fill="#4b4b4b">(lemma i fleksje)</text>
</g>
<!-- f1 -->
<g id="node1" class="node">
<title>f1</title>
<polygon fill="#e1f5fe" stroke="black" points="16.32,-16.5 16.32,-508.5 97.68,-508.5 97.68,-16.5 16.32,-16.5"/>
<text xml:space="preserve" text-anchor="middle" x="57" y="-491.9" font-family="Arial" font-size="14.00">[nom-sing]</text>
<text xml:space="preserve" text-anchor="middle" x="57" y="-475.1" font-family="Arial" font-size="14.00">Jan</text>
<text xml:space="preserve" text-anchor="middle" x="57" y="-458.3" font-family="Arial" font-size="14.00">/jan/</text>
<polyline fill="none" stroke="black" points="16.32,-450.1 97.68,-450.1"/>
<text xml:space="preserve" text-anchor="middle" x="57" y="-433.5" font-family="Arial" font-size="14.00">-</text>
<polyline fill="none" stroke="black" points="16.32,-425.3 97.68,-425.3"/>
<text xml:space="preserve" text-anchor="middle" x="57" y="-408.7" font-family="Arial" font-size="14.00">[gen-sing]</text>
<text xml:space="preserve" text-anchor="middle" x="57" y="-391.9" font-family="Arial" font-size="14.00">Jana</text>
<text xml:space="preserve" text-anchor="middle" x="57" y="-375.1" font-family="Arial" font-size="14.00">/jana/</text>
<polyline fill="none" stroke="black" points="16.32,-366.9 97.68,-366.9"/>
<text xml:space="preserve" text-anchor="middle" x="57" y="-350.3" font-family="Arial" font-size="14.00">[dat-sing]</text>
<text xml:space="preserve" text-anchor="middle" x="57" y="-333.5" font-family="Arial" font-size="14.00">Janowi</text>
<text xml:space="preserve" text-anchor="middle" x="57" y="-316.7" font-family="Arial" font-size="14.00">/janɔvi/</text>
<polyline fill="none" stroke="black" points="16.32,-308.5 97.68,-308.5"/>
<text xml:space="preserve" text-anchor="middle" x="57" y="-291.9" font-family="Arial" font-size="14.00">[acc-sing]</text>
<text xml:space="preserve" text-anchor="middle" x="57" y="-275.1" font-family="Arial" font-size="14.00">Jana</text>
<text xml:space="preserve" text-anchor="middle" x="57" y="-258.3" font-family="Arial" font-size="14.00">/jana/</text>
<polyline fill="none" stroke="black" points="16.32,-250.1 97.68,-250.1"/>
<text xml:space="preserve" text-anchor="middle" x="57" y="-233.5" font-family="Arial" font-size="14.00">[ins-sing]</text>
<text xml:space="preserve" text-anchor="middle" x="57" y="-216.7" font-family="Arial" font-size="14.00">Janem</text>
<text xml:space="preserve" text-anchor="middle" x="57" y="-199.9" font-family="Arial" font-size="14.00">/janɛm/</text>
<polyline fill="none" stroke="black" points="16.32,-191.7 97.68,-191.7"/>
<text xml:space="preserve" text-anchor="middle" x="57" y="-175.1" font-family="Arial" font-size="14.00">[loc-sing]</text>
<text xml:space="preserve" text-anchor="middle" x="57" y="-158.3" font-family="Arial" font-size="14.00">Janie</text>
<text xml:space="preserve" text-anchor="middle" x="57" y="-141.5" font-family="Arial" font-size="14.00">/jaɲɛ/</text>
<polyline fill="none" stroke="black" points="16.32,-133.3 97.68,-133.3"/>
<text xml:space="preserve" text-anchor="middle" x="57" y="-116.7" font-family="Arial" font-size="14.00">[pre-sing]</text>
<text xml:space="preserve" text-anchor="middle" x="57" y="-99.9" font-family="Arial" font-size="14.00">Janie</text>
<text xml:space="preserve" text-anchor="middle" x="57" y="-83.1" font-family="Arial" font-size="14.00">/jaɲɛ/</text>
<polyline fill="none" stroke="black" points="16.32,-74.9 97.68,-74.9"/>
<text xml:space="preserve" text-anchor="middle" x="57" y="-58.3" font-family="Arial" font-size="14.00">[voc-sing]</text>
<text xml:space="preserve" text-anchor="middle" x="57" y="-41.5" font-family="Arial" font-size="14.00">Janie</text>
<text xml:space="preserve" text-anchor="middle" x="57" y="-24.7" font-family="Arial" font-size="14.00">/jaɲɛ/</text>
</g>
<!-- f2 -->
<g id="node2" class="node">
<title>f2</title>
<polygon fill="#e1f5fe" stroke="black" points="111.32,-16.5 111.32,-508.5 192.68,-508.5 192.68,-16.5 111.32,-16.5"/>
<text xml:space="preserve" text-anchor="middle" x="152" y="-491.9" font-family="Arial" font-size="14.00">[nom-sing]</text>
<text xml:space="preserve" text-anchor="middle" x="152" y="-475.1" font-family="Arial" font-size="14.00">Jaś</text>
<text xml:space="preserve" text-anchor="middle" x="152" y="-458.3" font-family="Arial" font-size="14.00">/jaɕ/</text>
<polyline fill="none" stroke="black" points="111.32,-450.1 192.68,-450.1"/>
<text xml:space="preserve" text-anchor="middle" x="152" y="-433.5" font-family="Arial" font-size="14.00">-</text>
<polyline fill="none" stroke="black" points="111.32,-425.3 192.68,-425.3"/>
<text xml:space="preserve" text-anchor="middle" x="152" y="-408.7" font-family="Arial" font-size="14.00">[gen-sing]</text>
<text xml:space="preserve" text-anchor="middle" x="152" y="-391.9" font-family="Arial" font-size="14.00">Jasia</text>
<text xml:space="preserve" text-anchor="middle" x="152" y="-375.1" font-family="Arial" font-size="14.00">/jaɕa/</text>
<polyline fill="none" stroke="black" points="111.32,-366.9 192.68,-366.9"/>
<text xml:space="preserve" text-anchor="middle" x="152" y="-350.3" font-family="Arial" font-size="14.00">[dat-sing]</text>
<text xml:space="preserve" text-anchor="middle" x="152" y="-333.5" font-family="Arial" font-size="14.00">Jasiowi</text>
<text xml:space="preserve" text-anchor="middle" x="152" y="-316.7" font-family="Arial" font-size="14.00">/jaɕɔvi/</text>
<polyline fill="none" stroke="black" points="111.32,-308.5 192.68,-308.5"/>
<text xml:space="preserve" text-anchor="middle" x="152" y="-291.9" font-family="Arial" font-size="14.00">[acc-sing]</text>
<text xml:space="preserve" text-anchor="middle" x="152" y="-275.1" font-family="Arial" font-size="14.00">Jasia</text>
<text xml:space="preserve" text-anchor="middle" x="152" y="-258.3" font-family="Arial" font-size="14.00">/jaɕa/</text>
<polyline fill="none" stroke="black" points="111.32,-250.1 192.68,-250.1"/>
<text xml:space="preserve" text-anchor="middle" x="152" y="-233.5" font-family="Arial" font-size="14.00">[ins-sing]</text>
<text xml:space="preserve" text-anchor="middle" x="152" y="-216.7" font-family="Arial" font-size="14.00">Jasiem</text>
<text xml:space="preserve" text-anchor="middle" x="152" y="-199.9" font-family="Arial" font-size="14.00">/jaɕɛm/</text>
<polyline fill="none" stroke="black" points="111.32,-191.7 192.68,-191.7"/>
<text xml:space="preserve" text-anchor="middle" x="152" y="-175.1" font-family="Arial" font-size="14.00">[loc-sing]</text>
<text xml:space="preserve" text-anchor="middle" x="152" y="-158.3" font-family="Arial" font-size="14.00">Jasiu</text>
<text xml:space="preserve" text-anchor="middle" x="152" y="-141.5" font-family="Arial" font-size="14.00">/jaɕu/</text>
<polyline fill="none" stroke="black" points="111.32,-133.3 192.68,-133.3"/>
<text xml:space="preserve" text-anchor="middle" x="152" y="-116.7" font-family="Arial" font-size="14.00">[pre-sing]</text>
<text xml:space="preserve" text-anchor="middle" x="152" y="-99.9" font-family="Arial" font-size="14.00">Jasiu</text>
<text xml:space="preserve" text-anchor="middle" x="152" y="-83.1" font-family="Arial" font-size="14.00">/jaɕu/</text>
<polyline fill="none" stroke="black" points="111.32,-74.9 192.68,-74.9"/>
<text xml:space="preserve" text-anchor="middle" x="152" y="-58.3" font-family="Arial" font-size="14.00">[voc-sing]</text>
<text xml:space="preserve" text-anchor="middle" x="152" y="-41.5" font-family="Arial" font-size="14.00">Jasiu</text>
<text xml:space="preserve" text-anchor="middle" x="152" y="-24.7" font-family="Arial" font-size="14.00">/jaɕu/</text>
</g>
<!-- f3 -->
<g id="node3" class="node">
<title>f3</title>
<polygon fill="#e1f5fe" stroke="black" points="206.32,-16.5 206.32,-508.5 287.68,-508.5 287.68,-16.5 206.32,-16.5"/>
<text xml:space="preserve" text-anchor="middle" x="247" y="-491.9" font-family="Arial" font-size="14.00">[nom-sing]</text>
<text xml:space="preserve" text-anchor="middle" x="247" y="-475.1" font-family="Arial" font-size="14.00">Jonek</text>
<text xml:space="preserve" text-anchor="middle" x="247" y="-458.3" font-family="Arial" font-size="14.00">/jɔnɛk/</text>
<polyline fill="none" stroke="black" points="206.32,-450.1 287.68,-450.1"/>
<text xml:space="preserve" text-anchor="middle" x="247" y="-433.5" font-family="Arial" font-size="14.00">-</text>
<polyline fill="none" stroke="black" points="206.32,-425.3 287.68,-425.3"/>
<text xml:space="preserve" text-anchor="middle" x="247" y="-408.7" font-family="Arial" font-size="14.00">[gen-sing]</text>
<text xml:space="preserve" text-anchor="middle" x="247" y="-391.9" font-family="Arial" font-size="14.00">Jonka</text>
<text xml:space="preserve" text-anchor="middle" x="247" y="-375.1" font-family="Arial" font-size="14.00">/jɔnka/</text>
<polyline fill="none" stroke="black" points="206.32,-366.9 287.68,-366.9"/>
<text xml:space="preserve" text-anchor="middle" x="247" y="-350.3" font-family="Arial" font-size="14.00">[dat-sing]</text>
<text xml:space="preserve" text-anchor="middle" x="247" y="-333.5" font-family="Arial" font-size="14.00">Jonkowi</text>
<text xml:space="preserve" text-anchor="middle" x="247" y="-316.7" font-family="Arial" font-size="14.00">/jɔnkɔvi/</text>
<polyline fill="none" stroke="black" points="206.32,-308.5 287.68,-308.5"/>
<text xml:space="preserve" text-anchor="middle" x="247" y="-291.9" font-family="Arial" font-size="14.00">[acc-sing]</text>
<text xml:space="preserve" text-anchor="middle" x="247" y="-275.1" font-family="Arial" font-size="14.00">Jonka</text>
<text xml:space="preserve" text-anchor="middle" x="247" y="-258.3" font-family="Arial" font-size="14.00">/jɔnka/</text>
<polyline fill="none" stroke="black" points="206.32,-250.1 287.68,-250.1"/>
<text xml:space="preserve" text-anchor="middle" x="247" y="-233.5" font-family="Arial" font-size="14.00">[ins-sing]</text>
<text xml:space="preserve" text-anchor="middle" x="247" y="-216.7" font-family="Arial" font-size="14.00">Jonkiem</text>
<text xml:space="preserve" text-anchor="middle" x="247" y="-199.9" font-family="Arial" font-size="14.00">/jɔnkjɛm/</text>
<polyline fill="none" stroke="black" points="206.32,-191.7 287.68,-191.7"/>
<text xml:space="preserve" text-anchor="middle" x="247" y="-175.1" font-family="Arial" font-size="14.00">[loc-sing]</text>
<text xml:space="preserve" text-anchor="middle" x="247" y="-158.3" font-family="Arial" font-size="14.00">Jonku</text>
<text xml:space="preserve" text-anchor="middle" x="247" y="-141.5" font-family="Arial" font-size="14.00">/jɔnku/</text>
<polyline fill="none" stroke="black" points="206.32,-133.3 287.68,-133.3"/>
<text xml:space="preserve" text-anchor="middle" x="247" y="-116.7" font-family="Arial" font-size="14.00">[pre-sing]</text>
<text xml:space="preserve" text-anchor="middle" x="247" y="-99.9" font-family="Arial" font-size="14.00">Jonku</text>
<text xml:space="preserve" text-anchor="middle" x="247" y="-83.1" font-family="Arial" font-size="14.00">/jɔnku/</text>
<polyline fill="none" stroke="black" points="206.32,-74.9 287.68,-74.9"/>
<text xml:space="preserve" text-anchor="middle" x="247" y="-58.3" font-family="Arial" font-size="14.00">[voc-sing]</text>
<text xml:space="preserve" text-anchor="middle" x="247" y="-41.5" font-family="Arial" font-size="14.00">Jonku</text>
<text xml:space="preserve" text-anchor="middle" x="247" y="-24.7" font-family="Arial" font-size="14.00">/jɔnku/</text>
</g>
<!-- f4 -->
<g id="node4" class="node">
<title>f4</title>
<polygon fill="#e1f5fe" stroke="black" points="301.31,-74.9 301.31,-450.1 382.69,-450.1 382.69,-74.9 301.31,-74.9"/>
<text xml:space="preserve" text-anchor="middle" x="342" y="-433.5" font-family="Arial" font-size="14.00">[nom-sing]</text>
<text xml:space="preserve" text-anchor="middle" x="342" y="-416.7" font-family="Arial" font-size="14.00">Johannes</text>
<text xml:space="preserve" text-anchor="middle" x="342" y="-399.9" font-family="Arial" font-size="14.00">/joannes/</text>
<polyline fill="none" stroke="black" points="301.31,-391.7 382.69,-391.7"/>
<text xml:space="preserve" text-anchor="middle" x="342" y="-375.1" font-family="Arial" font-size="14.00">-</text>
<polyline fill="none" stroke="black" points="301.31,-366.9 382.69,-366.9"/>
<text xml:space="preserve" text-anchor="middle" x="342" y="-350.3" font-family="Arial" font-size="14.00">[gen-sing]</text>
<text xml:space="preserve" text-anchor="middle" x="342" y="-333.5" font-family="Arial" font-size="14.00">Johannis</text>
<text xml:space="preserve" text-anchor="middle" x="342" y="-316.7" font-family="Arial" font-size="14.00">/joannis/</text>
<polyline fill="none" stroke="black" points="301.31,-308.5 382.69,-308.5"/>
<text xml:space="preserve" text-anchor="middle" x="342" y="-291.9" font-family="Arial" font-size="14.00">[dat-sing]</text>
<text xml:space="preserve" text-anchor="middle" x="342" y="-275.1" font-family="Arial" font-size="14.00">Johanni</text>
<text xml:space="preserve" text-anchor="middle" x="342" y="-258.3" font-family="Arial" font-size="14.00">/joanni/</text>
<polyline fill="none" stroke="black" points="301.31,-250.1 382.69,-250.1"/>
<text xml:space="preserve" text-anchor="middle" x="342" y="-233.5" font-family="Arial" font-size="14.00">[acc-sing]</text>
<text xml:space="preserve" text-anchor="middle" x="342" y="-216.7" font-family="Arial" font-size="14.00">Johannem</text>
<text xml:space="preserve" text-anchor="middle" x="342" y="-199.9" font-family="Arial" font-size="14.00">/joannem/</text>
<polyline fill="none" stroke="black" points="301.31,-191.7 382.69,-191.7"/>
<text xml:space="preserve" text-anchor="middle" x="342" y="-175.1" font-family="Arial" font-size="14.00">[abl-sing]</text>
<text xml:space="preserve" text-anchor="middle" x="342" y="-158.3" font-family="Arial" font-size="14.00">Johanne</text>
<text xml:space="preserve" text-anchor="middle" x="342" y="-141.5" font-family="Arial" font-size="14.00">/joanne/</text>
<polyline fill="none" stroke="black" points="301.31,-133.3 382.69,-133.3"/>
<text xml:space="preserve" text-anchor="middle" x="342" y="-116.7" font-family="Arial" font-size="14.00">[voc-sing]</text>
<text xml:space="preserve" text-anchor="middle" x="342" y="-99.9" font-family="Arial" font-size="14.00">Johanne</text>
<text xml:space="preserve" text-anchor="middle" x="342" y="-83.1" font-family="Arial" font-size="14.00">/joanne/</text>
</g>
<!-- f5 -->
<g id="node5" class="node">
<title>f5</title>
<polygon fill="#e1f5fe" stroke="black" points="396.32,-133.3 396.32,-391.7 477.68,-391.7 477.68,-133.3 396.32,-133.3"/>
<text xml:space="preserve" text-anchor="middle" x="437" y="-375.1" font-family="Arial" font-size="14.00">[nom-sing]</text>
<text xml:space="preserve" text-anchor="middle" x="437" y="-358.3" font-family="Arial" font-size="14.00">Johann</text>
<text xml:space="preserve" text-anchor="middle" x="437" y="-341.5" font-family="Arial" font-size="14.00">/joːhan/</text>
<polyline fill="none" stroke="black" points="396.32,-333.3 477.68,-333.3"/>
<text xml:space="preserve" text-anchor="middle" x="437" y="-316.7" font-family="Arial" font-size="14.00">-</text>
<polyline fill="none" stroke="black" points="396.32,-308.5 477.68,-308.5"/>
<text xml:space="preserve" text-anchor="middle" x="437" y="-291.9" font-family="Arial" font-size="14.00">[gen-sing]</text>
<text xml:space="preserve" text-anchor="middle" x="437" y="-275.1" font-family="Arial" font-size="14.00">Johanns</text>
<text xml:space="preserve" text-anchor="middle" x="437" y="-258.3" font-family="Arial" font-size="14.00">/joːhans/</text>
<polyline fill="none" stroke="black" points="396.32,-250.1 477.68,-250.1"/>
<text xml:space="preserve" text-anchor="middle" x="437" y="-233.5" font-family="Arial" font-size="14.00">[dat-sing]</text>
<text xml:space="preserve" text-anchor="middle" x="437" y="-216.7" font-family="Arial" font-size="14.00">Johann</text>
<text xml:space="preserve" text-anchor="middle" x="437" y="-199.9" font-family="Arial" font-size="14.00">/joːhan/</text>
<polyline fill="none" stroke="black" points="396.32,-191.7 477.68,-191.7"/>
<text xml:space="preserve" text-anchor="middle" x="437" y="-175.1" font-family="Arial" font-size="14.00">[acc-sing]</text>
<text xml:space="preserve" text-anchor="middle" x="437" y="-158.3" font-family="Arial" font-size="14.00">Johann</text>
<text xml:space="preserve" text-anchor="middle" x="437" y="-141.5" font-family="Arial" font-size="14.00">/joːhan/</text>
</g>
<!-- f6 -->
<g id="node6" class="node">
<title>f6</title>
<polygon fill="#e1f5fe" stroke="black" points="491.32,-133.3 491.32,-391.7 572.68,-391.7 572.68,-133.3 491.32,-133.3"/>
<text xml:space="preserve" text-anchor="middle" x="532" y="-375.1" font-family="Arial" font-size="14.00">[nom-sing]</text>
<text xml:space="preserve" text-anchor="middle" x="532" y="-358.3" font-family="Arial" font-size="14.00">Hans</text>
<text xml:space="preserve" text-anchor="middle" x="532" y="-341.5" font-family="Arial" font-size="14.00">/hans/</text>
<polyline fill="none" stroke="black" points="491.32,-333.3 572.68,-333.3"/>
<text xml:space="preserve" text-anchor="middle" x="532" y="-316.7" font-family="Arial" font-size="14.00">-</text>
<polyline fill="none" stroke="black" points="491.32,-308.5 572.68,-308.5"/>
<text xml:space="preserve" text-anchor="middle" x="532" y="-291.9" font-family="Arial" font-size="14.00">[gen-sing]</text>
<text xml:space="preserve" text-anchor="middle" x="532" y="-275.1" font-family="Arial" font-size="14.00">Hansens</text>
<text xml:space="preserve" text-anchor="middle" x="532" y="-258.3" font-family="Arial" font-size="14.00">/hanzn̩s/</text>
<polyline fill="none" stroke="black" points="491.32,-250.1 572.68,-250.1"/>
<text xml:space="preserve" text-anchor="middle" x="532" y="-233.5" font-family="Arial" font-size="14.00">[dat-sing]</text>
<text xml:space="preserve" text-anchor="middle" x="532" y="-216.7" font-family="Arial" font-size="14.00">Hans</text>
<text xml:space="preserve" text-anchor="middle" x="532" y="-199.9" font-family="Arial" font-size="14.00">/hans/</text>
<polyline fill="none" stroke="black" points="491.32,-191.7 572.68,-191.7"/>
<text xml:space="preserve" text-anchor="middle" x="532" y="-175.1" font-family="Arial" font-size="14.00">[acc-sing]</text>
<text xml:space="preserve" text-anchor="middle" x="532" y="-158.3" font-family="Arial" font-size="14.00">Hans</text>
<text xml:space="preserve" text-anchor="middle" x="532" y="-141.5" font-family="Arial" font-size="14.00">/hans/</text>
</g>
<!-- f7 -->
<g id="node7" class="node">
<title>f7</title>
<polygon fill="#e1f5fe" stroke="black" points="586.32,-45.7 586.32,-479.3 667.68,-479.3 667.68,-45.7 586.32,-45.7"/>
<text xml:space="preserve" text-anchor="middle" x="627" y="-462.7" font-family="Arial" font-size="14.00">[nom-sing]</text>
<text xml:space="preserve" text-anchor="middle" x="627" y="-445.9" font-family="Arial" font-size="14.00">Иванъ</text>
<text xml:space="preserve" text-anchor="middle" x="627" y="-429.1" font-family="Arial" font-size="14.00">/ɪvan/</text>
<polyline fill="none" stroke="black" points="586.32,-420.9 667.68,-420.9"/>
<text xml:space="preserve" text-anchor="middle" x="627" y="-404.3" font-family="Arial" font-size="14.00">-</text>
<polyline fill="none" stroke="black" points="586.32,-396.1 667.68,-396.1"/>
<text xml:space="preserve" text-anchor="middle" x="627" y="-379.5" font-family="Arial" font-size="14.00">[gen-sing]</text>
<text xml:space="preserve" text-anchor="middle" x="627" y="-362.7" font-family="Arial" font-size="14.00">Ивана</text>
<text xml:space="preserve" text-anchor="middle" x="627" y="-345.9" font-family="Arial" font-size="14.00">/ɪvanə/</text>
<polyline fill="none" stroke="black" points="586.32,-337.7 667.68,-337.7"/>
<text xml:space="preserve" text-anchor="middle" x="627" y="-321.1" font-family="Arial" font-size="14.00">[dat-sing]</text>
<text xml:space="preserve" text-anchor="middle" x="627" y="-304.3" font-family="Arial" font-size="14.00">Иваnu</text>
<text xml:space="preserve" text-anchor="middle" x="627" y="-287.5" font-family="Arial" font-size="14.00">/ɪvanu/</text>
<polyline fill="none" stroke="black" points="586.32,-279.3 667.68,-279.3"/>
<text xml:space="preserve" text-anchor="middle" x="627" y="-262.7" font-family="Arial" font-size="14.00">[acc-sing]</text>
<text xml:space="preserve" text-anchor="middle" x="627" y="-245.9" font-family="Arial" font-size="14.00">Ивана</text>
<text xml:space="preserve" text-anchor="middle" x="627" y="-229.1" font-family="Arial" font-size="14.00">/ɪvanə/</text>
<polyline fill="none" stroke="black" points="586.32,-220.9 667.68,-220.9"/>
<text xml:space="preserve" text-anchor="middle" x="627" y="-204.3" font-family="Arial" font-size="14.00">[ins-sing]</text>
<text xml:space="preserve" text-anchor="middle" x="627" y="-187.5" font-family="Arial" font-size="14.00">Иваномъ</text>
<text xml:space="preserve" text-anchor="middle" x="627" y="-170.7" font-family="Arial" font-size="14.00">/ɪvanəm/</text>
<polyline fill="none" stroke="black" points="586.32,-162.5 667.68,-162.5"/>
<text xml:space="preserve" text-anchor="middle" x="627" y="-145.9" font-family="Arial" font-size="14.00">[loc-sing]</text>
<text xml:space="preserve" text-anchor="middle" x="627" y="-129.1" font-family="Arial" font-size="14.00">Иванѣ</text>
<text xml:space="preserve" text-anchor="middle" x="627" y="-112.3" font-family="Arial" font-size="14.00">/ɪvanʲɛ/</text>
<polyline fill="none" stroke="black" points="586.32,-104.1 667.68,-104.1"/>
<text xml:space="preserve" text-anchor="middle" x="627" y="-87.5" font-family="Arial" font-size="14.00">[pre-sing]</text>
<text xml:space="preserve" text-anchor="middle" x="627" y="-70.7" font-family="Arial" font-size="14.00">Иванѣ</text>
<text xml:space="preserve" text-anchor="middle" x="627" y="-53.9" font-family="Arial" font-size="14.00">/ɪvanʲɛ/</text>
</g>
<!-- f8 -->
<g id="node8" class="node">
<title>f8</title>
<polygon fill="#e1f5fe" stroke="black" points="681.93,-45.7 681.93,-479.3 764.07,-479.3 764.07,-45.7 681.93,-45.7"/>
<text xml:space="preserve" text-anchor="middle" x="723" y="-462.7" font-family="Arial" font-size="14.00">[nom-sing]</text>
<text xml:space="preserve" text-anchor="middle" x="723" y="-445.9" font-family="Arial" font-size="14.00">Іоаннъ</text>
<text xml:space="preserve" text-anchor="middle" x="723" y="-429.1" font-family="Arial" font-size="14.00">/ɪoan/</text>
<polyline fill="none" stroke="black" points="681.93,-420.9 764.07,-420.9"/>
<text xml:space="preserve" text-anchor="middle" x="723" y="-404.3" font-family="Arial" font-size="14.00">-</text>
<polyline fill="none" stroke="black" points="681.93,-396.1 764.07,-396.1"/>
<text xml:space="preserve" text-anchor="middle" x="723" y="-379.5" font-family="Arial" font-size="14.00">[gen-sing]</text>
<text xml:space="preserve" text-anchor="middle" x="723" y="-362.7" font-family="Arial" font-size="14.00">Іоанна</text>
<text xml:space="preserve" text-anchor="middle" x="723" y="-345.9" font-family="Arial" font-size="14.00">/ɪoannə/</text>
<polyline fill="none" stroke="black" points="681.93,-337.7 764.07,-337.7"/>
<text xml:space="preserve" text-anchor="middle" x="723" y="-321.1" font-family="Arial" font-size="14.00">[dat-sing]</text>
<text xml:space="preserve" text-anchor="middle" x="723" y="-304.3" font-family="Arial" font-size="14.00">Іоанnu</text>
<text xml:space="preserve" text-anchor="middle" x="723" y="-287.5" font-family="Arial" font-size="14.00">/ɪoannu/</text>
<polyline fill="none" stroke="black" points="681.93,-279.3 764.07,-279.3"/>
<text xml:space="preserve" text-anchor="middle" x="723" y="-262.7" font-family="Arial" font-size="14.00">[acc-sing]</text>
<text xml:space="preserve" text-anchor="middle" x="723" y="-245.9" font-family="Arial" font-size="14.00">Іоанna</text>
<text xml:space="preserve" text-anchor="middle" x="723" y="-229.1" font-family="Arial" font-size="14.00">/ɪoannə/</text>
<polyline fill="none" stroke="black" points="681.93,-220.9 764.07,-220.9"/>
<text xml:space="preserve" text-anchor="middle" x="723" y="-204.3" font-family="Arial" font-size="14.00">[ins-sing]</text>
<text xml:space="preserve" text-anchor="middle" x="723" y="-187.5" font-family="Arial" font-size="14.00">Іоанномъ</text>
<text xml:space="preserve" text-anchor="middle" x="723" y="-170.7" font-family="Arial" font-size="14.00">/ɪoannəm/</text>
<polyline fill="none" stroke="black" points="681.93,-162.5 764.07,-162.5"/>
<text xml:space="preserve" text-anchor="middle" x="723" y="-145.9" font-family="Arial" font-size="14.00">[loc-sing]</text>
<text xml:space="preserve" text-anchor="middle" x="723" y="-129.1" font-family="Arial" font-size="14.00">Іоаннѣ</text>
<text xml:space="preserve" text-anchor="middle" x="723" y="-112.3" font-family="Arial" font-size="14.00">/ɪoannʲɛ/</text>
<polyline fill="none" stroke="black" points="681.93,-104.1 764.07,-104.1"/>
<text xml:space="preserve" text-anchor="middle" x="723" y="-87.5" font-family="Arial" font-size="14.00">[pre-sing]</text>
<text xml:space="preserve" text-anchor="middle" x="723" y="-70.7" font-family="Arial" font-size="14.00">Іоаннѣ</text>
<text xml:space="preserve" text-anchor="middle" x="723" y="-53.9" font-family="Arial" font-size="14.00">/ɪoannʲɛ/</text>
</g>
<!-- translacje1 -->
<g id="node9" class="node">
<title>translacje1</title>
<path fill="white" stroke="black" d="M414.79,-825C414.79,-825 365.21,-825 365.21,-825 359.21,-825 353.21,-819 353.21,-813 353.21,-813 353.21,-795.4 353.21,-795.4 353.21,-789.4 359.21,-783.4 365.21,-783.4 365.21,-783.4 414.79,-783.4 414.79,-783.4 420.79,-783.4 426.79,-789.4 426.79,-795.4 426.79,-795.4 426.79,-813 426.79,-813 426.79,-819 420.79,-825 414.79,-825"/>
<text xml:space="preserve" text-anchor="middle" x="390" y="-808.4" font-family="Arial" font-size="14.00">warianty</text>
<text xml:space="preserve" text-anchor="middle" x="390" y="-791.6" font-family="Arial" font-size="14.00">językowe</text>
</g>
<!-- alloformy1 -->
<g id="node10" class="node">
<title>alloformy1</title>
<path fill="white" stroke="black" d="M228.06,-675.4C228.06,-675.4 169.94,-675.4 169.94,-675.4 163.94,-675.4 157.94,-669.4 157.94,-663.4 157.94,-663.4 157.94,-629 157.94,-629 157.94,-623 163.94,-617 169.94,-617 169.94,-617 228.06,-617 228.06,-617 234.06,-617 240.06,-623 240.06,-629 240.06,-629 240.06,-663.4 240.06,-663.4 240.06,-669.4 234.06,-675.4 228.06,-675.4"/>
<text xml:space="preserve" text-anchor="middle" x="199" y="-658.8" font-family="Arial" font-size="14.00">allonimy</text>
<text xml:space="preserve" text-anchor="middle" x="199" y="-642" font-family="Arial" font-size="14.00">(alloformy)</text>
<text xml:space="preserve" text-anchor="middle" x="199" y="-625.2" font-family="Arial" font-size="14.00">POL</text>
</g>
<!-- translacje1&#45;&gt;alloformy1 -->
<g id="edge1" class="edge">
<title>translacje1-&gt;alloformy1</title>
<path fill="none" stroke="black" d="M356.68,-775.99C324.96,-750.07 277.04,-710.94 242.36,-682.61"/>
<polygon fill="black" stroke="black" points="354.29,-778.55 364.25,-782.17 358.72,-773.13 354.29,-778.55"/>
<polygon fill="black" stroke="black" points="244.97,-680.23 235.01,-676.61 240.54,-685.65 244.97,-680.23"/>
</g>
<!-- alloformy2 -->
<g id="node11" class="node">
<title>alloformy2</title>
<path fill="white" stroke="black" d="M371.06,-675.4C371.06,-675.4 312.94,-675.4 312.94,-675.4 306.94,-675.4 300.94,-669.4 300.94,-663.4 300.94,-663.4 300.94,-629 300.94,-629 300.94,-623 306.94,-617 312.94,-617 312.94,-617 371.06,-617 371.06,-617 377.06,-617 383.06,-623 383.06,-629 383.06,-629 383.06,-663.4 383.06,-663.4 383.06,-669.4 377.06,-675.4 371.06,-675.4"/>
<text xml:space="preserve" text-anchor="middle" x="342" y="-658.8" font-family="Arial" font-size="14.00">allonimy</text>
<text xml:space="preserve" text-anchor="middle" x="342" y="-642" font-family="Arial" font-size="14.00">(alloformy)</text>
<text xml:space="preserve" text-anchor="middle" x="342" y="-625.2" font-family="Arial" font-size="14.00">LAC</text>
</g>
<!-- translacje1&#45;&gt;alloformy2 -->
<g id="edge2" class="edge">
<title>translacje1-&gt;alloformy2</title>
<path fill="none" stroke="black" d="M380.5,-772.31C372.92,-747.71 362.27,-713.09 354.09,-686.51"/>
<polygon fill="black" stroke="black" points="377.09,-773.15 383.38,-781.68 383.78,-771.09 377.09,-773.15"/>
<polygon fill="black" stroke="black" points="357.49,-685.63 351.2,-677.1 350.8,-687.69 357.49,-685.63"/>
</g>
<!-- alloformy3 -->
<g id="node12" class="node">
<title>alloformy3</title>
<path fill="white" stroke="black" d="M467.06,-675.4C467.06,-675.4 408.94,-675.4 408.94,-675.4 402.94,-675.4 396.94,-669.4 396.94,-663.4 396.94,-663.4 396.94,-629 396.94,-629 396.94,-623 402.94,-617 408.94,-617 408.94,-617 467.06,-617 467.06,-617 473.06,-617 479.06,-623 479.06,-629 479.06,-629 479.06,-663.4 479.06,-663.4 479.06,-669.4 473.06,-675.4 467.06,-675.4"/>
<text xml:space="preserve" text-anchor="middle" x="438" y="-658.8" font-family="Arial" font-size="14.00">allonimy</text>
<text xml:space="preserve" text-anchor="middle" x="438" y="-642" font-family="Arial" font-size="14.00">(alloformy)</text>
<text xml:space="preserve" text-anchor="middle" x="438" y="-625.2" font-family="Arial" font-size="14.00">DEU</text>
</g>
<!-- translacje1&#45;&gt;alloformy3 -->
<g id="edge3" class="edge">
<title>translacje1-&gt;alloformy3</title>
<path fill="none" stroke="black" d="M399.5,-772.31C407.08,-747.71 417.73,-713.09 425.91,-686.51"/>
<polygon fill="black" stroke="black" points="396.22,-771.09 396.62,-781.68 402.91,-773.15 396.22,-771.09"/>
<polygon fill="black" stroke="black" points="429.2,-687.69 428.8,-677.1 422.51,-685.63 429.2,-687.69"/>
</g>
<!-- alloformy4 -->
<g id="node13" class="node">
<title>alloformy4</title>
<path fill="white" stroke="black" d="M656.06,-675.4C656.06,-675.4 597.94,-675.4 597.94,-675.4 591.94,-675.4 585.94,-669.4 585.94,-663.4 585.94,-663.4 585.94,-629 585.94,-629 585.94,-623 591.94,-617 597.94,-617 597.94,-617 656.06,-617 656.06,-617 662.06,-617 668.06,-623 668.06,-629 668.06,-629 668.06,-663.4 668.06,-663.4 668.06,-669.4 662.06,-675.4 656.06,-675.4"/>
<text xml:space="preserve" text-anchor="middle" x="627" y="-658.8" font-family="Arial" font-size="14.00">allonimy</text>
<text xml:space="preserve" text-anchor="middle" x="627" y="-642" font-family="Arial" font-size="14.00">(alloformy)</text>
<text xml:space="preserve" text-anchor="middle" x="627" y="-625.2" font-family="Arial" font-size="14.00">ROS</text>
</g>
<!-- translacje1&#45;&gt;alloformy4 -->
<g id="edge4" class="edge">
<title>translacje1-&gt;alloformy4</title>
<path fill="none" stroke="black" d="M430.11,-776.8C470.27,-750.36 532.22,-709.58 575.89,-680.84"/>
<polygon fill="black" stroke="black" points="428.19,-773.87 421.76,-782.29 432.04,-779.72 428.19,-773.87"/>
<polygon fill="black" stroke="black" points="577.77,-683.79 584.2,-675.37 573.92,-677.95 577.77,-683.79"/>
</g>
<!-- alloformy1&#45;&gt;f1 -->
<g id="edge5" class="edge">
<title>alloformy1-&gt;f1</title>
<path fill="none" stroke="black" d="M148.14,-622.44C131.53,-612.54 114.65,-599.31 104,-582.6 91.65,-563.22 82.06,-541.85 74.65,-519.64"/>
<polygon fill="black" stroke="black" points="146.08,-625.3 156.52,-627.15 149.51,-619.2 146.08,-625.3"/>
<polygon fill="black" stroke="black" points="77.99,-518.59 71.64,-510.11 71.31,-520.7 77.99,-518.59"/>
</g>
<!-- alloformy1&#45;&gt;f2 -->
<g id="edge6" class="edge">
<title>alloformy1-&gt;f2</title>
<path fill="none" stroke="black" d="M194.06,-605.1C191.31,-582.78 187.64,-552.92 183.6,-520.1"/>
<polygon fill="black" stroke="black" points="190.59,-605.51 195.28,-615.01 197.53,-604.66 190.59,-605.51"/>
<polygon fill="black" stroke="black" points="187.09,-519.86 182.4,-510.36 180.15,-520.71 187.09,-519.86"/>
</g>
<!-- alloformy1&#45;&gt;f3 -->
<g id="edge7" class="edge">
<title>alloformy1-&gt;f3</title>
<path fill="none" stroke="black" d="M204.04,-605.1C206.85,-582.78 210.6,-552.92 214.73,-520.1"/>
<polygon fill="black" stroke="black" points="200.57,-604.65 202.8,-615.01 207.52,-605.52 200.57,-604.65"/>
<polygon fill="black" stroke="black" points="218.18,-520.72 215.96,-510.36 211.24,-519.85 218.18,-520.72"/>
</g>
<!-- alloformy2&#45;&gt;f4 -->
<g id="edge8" class="edge">
<title>alloformy2-&gt;f4</title>
<path fill="none" stroke="black" d="M342,-605.12C342,-570.04 342,-516.29 342,-461.74"/>
<polygon fill="black" stroke="black" points="338.5,-605 342,-615 345.5,-605 338.5,-605"/>
<polygon fill="black" stroke="black" points="345.5,-461.97 342,-451.97 338.5,-461.97 345.5,-461.97"/>
</g>
<!-- alloformy3&#45;&gt;f5 -->
<g id="edge9" class="edge">
<title>alloformy3-&gt;f5</title>
<path fill="none" stroke="black" d="M437.9,-605.2C437.77,-557.52 437.55,-475.25 437.37,-403.39"/>
<polygon fill="black" stroke="black" points="434.39,-605.01 437.92,-615 441.39,-604.99 434.39,-605.01"/>
<polygon fill="black" stroke="black" points="440.87,-403.46 437.34,-393.46 433.87,-403.47 440.87,-403.46"/>
</g>
<!-- alloformy3&#45;&gt;f6 -->
<g id="edge10" class="edge">
<title>alloformy3-&gt;f6</title>
<path fill="none" stroke="black" d="M471,-607.39C476.42,-599.61 481.43,-591.16 485,-582.6 508.39,-526.52 520.4,-460.64 526.47,-403.36"/>
<polygon fill="black" stroke="black" points="468.28,-605.18 465.14,-615.3 473.91,-609.34 468.28,-605.18"/>
<polygon fill="black" stroke="black" points="529.94,-403.82 527.45,-393.52 522.97,-403.13 529.94,-403.82"/>
</g>
<!-- alloformy4&#45;&gt;f7 -->
<g id="edge11" class="edge">
<title>alloformy4-&gt;f7</title>
<path fill="none" stroke="black" d="M627,-605.3C627,-576.52 627,-535.11 627,-490.97"/>
<polygon fill="black" stroke="black" points="623.5,-605 627,-615 630.5,-605 623.5,-605"/>
<polygon fill="black" stroke="black" points="630.5,-491.22 627,-481.22 623.5,-491.22 630.5,-491.22"/>
</g>
<!-- alloformy4&#45;&gt;f8 -->
<g id="edge12" class="edge">
<title>alloformy4-&gt;f8</title>
<path fill="none" stroke="black" d="M660.69,-607.46C666.23,-599.67 671.35,-591.2 675,-582.6 687.25,-553.77 696.43,-522.32 703.31,-490.76"/>
<polygon fill="black" stroke="black" points="657.94,-605.29 654.7,-615.38 663.52,-609.51 657.94,-605.29"/>
<polygon fill="black" stroke="black" points="706.72,-491.58 705.34,-481.07 699.87,-490.14 706.72,-491.58"/>
</g>
</g>
</svg>