<svg xmlns="http://www.w3.org/2000/svg" xmlns:xlink="http://www.w3.org/1999/xlink" width="1023pt" height="686pt" viewBox="0.00 0.00 1023.00 686.00">
<g id="graph0" class="graph" transform="scale(1 1) rotate(0) translate(4 682)">
<title>G</title>
<polygon fill="white" stroke="none" points="-4,4 -4,-682 1018.57,-682 1018.57,4 -4,4"/>
<g id="clust1" class="cluster">
<title>cluster_atom_structure</title>
<polygon fill="#dbdbdb" stroke="#dbdbdb" points="704.55,-8 704.55,-149 1006.57,-149 1006.57,-8 704.55,-8"/>
<text xml:space="preserve" text-anchor="middle" x="855.56" y="-132.4" font-family="Arial" font-size="14.00">ANATOMIA ATOMU (LEMMY I FLEKSJI)</text>
</g>
<g id="clust2" class="cluster">
<title>cluster_fleksje_atomy</title>
<polygon fill="#dbdbdb" stroke="#dbdbdb" points="0,-42 0,-125 228.33,-125 228.33,-42 0,-42"/>
<text xml:space="preserve" text-anchor="middle" x="114.17" y="-108.4" font-family="Arial" font-size="14.00">WARSTWA ATOMÓW (FLEKSJE)</text>
</g>
<g id="clust3" class="cluster">
<title>cluster_lemma_atomy</title>
<polygon fill="#dbdbdb" stroke="#dbdbdb" points="439.28,-178 439.28,-261 656.71,-261 656.71,-178 439.28,-178"/>
<text xml:space="preserve" text-anchor="middle" x="547.99" y="-244.4" font-family="Arial" font-size="14.00">WARSTWA ATOMÓW (LEMMA)</text>
</g>
<g id="clust4" class="cluster">
<title>cluster_alloformy</title>
<polygon fill="#f1e5fe" stroke="#f1e5fe" points="677.71,-157 677.71,-282 803.84,-282 803.84,-157 677.71,-157"/>
<text xml:space="preserve" text-anchor="middle" x="740.77" y="-265.4" font-family="Arial" font-size="14.00">ALLOFORMY</text>
</g>
<g id="clust5" class="cluster">
<title>cluster_onim</title>
<polygon fill="#e5fee9" stroke="#e5fee9" points="262.58,-397 262.58,-670 392.13,-670 392.13,-397 262.58,-397"/>
<text xml:space="preserve" text-anchor="middle" x="327.35" y="-653.4" font-family="Arial" font-size="14.00">NAZWY WŁASNE</text>
<text xml:space="preserve" text-anchor="middle" x="327.35" y="-620.6" font-family="Arial" font-size="14.00">- ONIMY</text>
</g>
<g id="clust6" class="cluster">
<title>cluster_leksem</title>
<polygon fill="#fef1e5" stroke="#fef1e5" points="249.33,-99 249.33,-389 405.38,-389 405.38,-99 249.33,-99"/>
<text xml:space="preserve" text-anchor="middle" x="327.35" y="-372.4" font-family="Arial" font-size="14.00">NAZWY POSPOLITE</text>
<text xml:space="preserve" text-anchor="middle" x="327.35" y="-355.6" font-family="Arial" font-size="14.00">(Apelatywy onimiczne)</text>
<text xml:space="preserve" text-anchor="middle" x="327.35" y="-322.8" font-family="Arial" font-size="14.00">- LEKSY</text>
</g>
<!-- atom_model -->
<g id="node1" class="node">
<title>atom_model</title>
<polygon fill="#e1f5fe" stroke="white" stroke-width="2" points="768.99,-84 712.55,-84 712.55,-48 768.99,-48 768.99,-84"/>
<text xml:space="preserve" text-anchor="middle" x="740.77" y="-61.8" font-family="Arial" font-size="14.00">ATOM</text>
</g>
<!-- atom_section -->
<g id="node2" class="node">
<title>atom_section</title>
<polygon fill="white" stroke="white" points="836.34,-16.4 836.34,-115.6 998.57,-115.6 998.57,-16.4 836.34,-16.4"/>
<text xml:space="preserve" text-anchor="middle" x="917.45" y="-99" font-family="Arial" font-size="14.00">GRAFIA: TEXT</text>
<polyline fill="none" stroke="white" points="836.34,-90.8 998.57,-90.8"/>
<text xml:space="preserve" text-anchor="middle" x="917.45" y="-74.2" font-family="Arial" font-size="14.00">FONIA: IPA</text>
<polyline fill="none" stroke="white" points="836.34,-66 998.57,-66"/>
<text xml:space="preserve" text-anchor="middle" x="917.45" y="-49.4" font-family="Arial" font-size="14.00">FONIA: BM-SOUNDEX</text>
<polyline fill="none" stroke="white" points="836.34,-41.2 998.57,-41.2"/>
<text xml:space="preserve" text-anchor="middle" x="917.45" y="-24.6" font-family="Arial" font-size="14.00">FONIA: DM-SOUNDEX</text>
</g>
<!-- atom_section&#45;&gt;atom_model -->
<g id="edge1" class="edge">
<title>atom_section-&gt;atom_model</title>
<path fill="none" stroke="black" d="M836.02,-66C816.85,-66 797.24,-66 780.9,-66"/>
<polygon fill="black" stroke="black" points="781.15,-62.5 771.15,-66 781.15,-69.5 781.15,-62.5"/>
</g>
<!-- F_ATOM -->
<g id="node3" class="node">
<title>F_ATOM</title>
<polygon fill="#e1f5fe" stroke="black" stroke-width="0" points="181.02,-91.8 48.31,-91.8 48.31,-50.2 181.02,-50.2 181.02,-91.8"/>
<text xml:space="preserve" text-anchor="middle" x="114.67" y="-75.2" font-family="Arial" font-size="14.00">ATOM FLEKSJA</text>
<text xml:space="preserve" text-anchor="middle" x="114.67" y="-58.4" font-family="Arial" font-size="14.00">(np. Jana, Jasiowi)</text>
</g>
<!-- L_ATOM -->
<g id="node4" class="node">
<title>L_ATOM</title>
<polygon fill="#e1f5fe" stroke="black" stroke-width="0" points="619.52,-227.8 477.47,-227.8 477.47,-186.2 619.52,-186.2 619.52,-227.8"/>
<text xml:space="preserve" text-anchor="middle" x="548.49" y="-211.2" font-family="Arial" font-size="14.00">ATOM LEMMA</text>
<text xml:space="preserve" text-anchor="middle" x="548.49" y="-194.4" font-family="Arial" font-size="14.00">(np. Jan, Jaś, lasek)</text>
</g>
<!-- K_ONIMY -->
<g id="node6" class="node">
<title>K_ONIMY</title>
<path fill="none" stroke="black" d="M287.5,-405.8C287.5,-405.8 368.21,-405.8 368.21,-405.8 374.21,-405.8 380.21,-411.8 380.21,-417.8 380.21,-417.8 380.21,-592.2 380.21,-592.2 380.21,-598.2 374.21,-604.2 368.21,-604.2 368.21,-604.2 287.5,-604.2 287.5,-604.2 281.5,-604.2 275.5,-598.2 275.5,-592.2 275.5,-592.2 275.5,-417.8 275.5,-417.8 275.5,-411.8 281.5,-405.8 287.5,-405.8"/>
<text xml:space="preserve" text-anchor="middle" x="327.85" y="-587.6" font-family="Arial" font-size="14.00">antroponimy</text>
<polyline fill="none" stroke="black" points="275.5,-579.4 380.21,-579.4"/>
<text xml:space="preserve" text-anchor="middle" x="327.85" y="-562.8" font-family="Arial" font-size="14.00">socjoideonimy</text>
<polyline fill="none" stroke="black" points="275.5,-554.6 380.21,-554.6"/>
<text xml:space="preserve" text-anchor="middle" x="327.85" y="-538" font-family="Arial" font-size="14.00">etnonimy</text>
<polyline fill="none" stroke="black" points="275.5,-529.8 380.21,-529.8"/>
<text xml:space="preserve" text-anchor="middle" x="327.85" y="-513.2" font-family="Arial" font-size="14.00">choronimy</text>
<polyline fill="none" stroke="black" points="275.5,-505 380.21,-505"/>
<text xml:space="preserve" text-anchor="middle" x="327.85" y="-488.4" font-family="Arial" font-size="14.00">ojkonimy</text>
<polyline fill="none" stroke="black" points="275.5,-480.2 380.21,-480.2"/>
<text xml:space="preserve" text-anchor="middle" x="327.85" y="-463.6" font-family="Arial" font-size="14.00">urbanonimy</text>
<polyline fill="none" stroke="black" points="275.5,-455.4 380.21,-455.4"/>
<text xml:space="preserve" text-anchor="middle" x="327.85" y="-438.8" font-family="Arial" font-size="14.00">hodonimy</text>
<polyline fill="none" stroke="black" points="275.5,-430.6 380.21,-430.6"/>
<text xml:space="preserve" text-anchor="middle" x="327.85" y="-414" font-family="Arial" font-size="14.00">...</text>
</g>
<!-- L_ATOM&#45;&gt;K_ONIMY -->
<g id="edge6" class="edge">
<title>L_ATOM-&gt;K_ONIMY</title>
<path fill="none" stroke="black" d="M532.47,-227.48C503.03,-267.61 436.35,-358.48 387.29,-425.36"/>
<polygon fill="black" stroke="black" points="384.48,-423.27 381.38,-433.41 390.12,-427.41 384.48,-423.27"/>
<text xml:space="preserve" text-anchor="middle" x="422.33" y="-385.69" font-family="Arial" font-size="10.00">np.</text>
</g>
<!-- K_LEKSY -->
<g id="node7" class="node">
<title>K_LEKSY</title>
<path fill="none" stroke="black" d="M286.33,-107.8C286.33,-107.8 369.38,-107.8 369.38,-107.8 375.38,-107.8 381.38,-113.8 381.38,-119.8 381.38,-119.8 381.38,-294.2 381.38,-294.2 381.38,-300.2 375.38,-306.2 369.38,-306.2 369.38,-306.2 286.33,-306.2 286.33,-306.2 280.33,-306.2 274.33,-300.2 274.33,-294.2 274.33,-294.2 274.33,-119.8 274.33,-119.8 274.33,-113.8 280.33,-107.8 286.33,-107.8"/>
<text xml:space="preserve" text-anchor="middle" x="327.85" y="-289.6" font-family="Arial" font-size="14.00">antropoleksy</text>
<polyline fill="none" stroke="black" points="274.33,-281.4 381.38,-281.4"/>
<text xml:space="preserve" text-anchor="middle" x="327.85" y="-264.8" font-family="Arial" font-size="14.00">socjoideoleksy</text>
<polyline fill="none" stroke="black" points="274.33,-256.6 381.38,-256.6"/>
<text xml:space="preserve" text-anchor="middle" x="327.85" y="-240" font-family="Arial" font-size="14.00">etnoleksy</text>
<polyline fill="none" stroke="black" points="274.33,-231.8 381.38,-231.8"/>
<text xml:space="preserve" text-anchor="middle" x="327.85" y="-215.2" font-family="Arial" font-size="14.00">choroleksy</text>
<polyline fill="none" stroke="black" points="274.33,-207 381.38,-207"/>
<text xml:space="preserve" text-anchor="middle" x="327.85" y="-190.4" font-family="Arial" font-size="14.00">ojkoleksy</text>
<polyline fill="none" stroke="black" points="274.33,-182.2 381.38,-182.2"/>
<text xml:space="preserve" text-anchor="middle" x="327.85" y="-165.6" font-family="Arial" font-size="14.00">urbanoleksy</text>
<polyline fill="none" stroke="black" points="274.33,-157.4 381.38,-157.4"/>
<text xml:space="preserve" text-anchor="middle" x="327.85" y="-140.8" font-family="Arial" font-size="14.00">hodoleksy</text>
<polyline fill="none" stroke="black" points="274.33,-132.6 381.38,-132.6"/>
<text xml:space="preserve" text-anchor="middle" x="327.85" y="-116" font-family="Arial" font-size="14.00">...</text>
</g>
<!-- L_ATOM&#45;&gt;K_LEKSY -->
<g id="edge7" class="edge">
<title>L_ATOM-&gt;K_LEKSY</title>
<path fill="none" stroke="black" d="M477.71,-207C450.61,-207 419.75,-207 393.19,-207"/>
<polygon fill="black" stroke="black" points="393.22,-203.5 383.22,-207 393.22,-210.5 393.22,-203.5"/>
<text xml:space="preserve" text-anchor="middle" x="422.33" y="-210" font-family="Arial" font-size="10.00">np.</text>
</g>
<!-- fleksje_hub -->
<g id="node9" class="node">
<title>fleksje_hub</title>
<path fill="none" stroke="black" d="M343.7,-89C343.7,-89 312.01,-89 312.01,-89 306.01,-89 300.01,-83 300.01,-77 300.01,-77 300.01,-65 300.01,-65 300.01,-59 306.01,-53 312.01,-53 312.01,-53 343.7,-53 343.7,-53 349.7,-53 355.7,-59 355.7,-65 355.7,-65 355.7,-77 355.7,-77 355.7,-83 349.7,-89 343.7,-89"/>
<text xml:space="preserve" text-anchor="middle" x="327.85" y="-66.8" font-family="Arial" font-size="14.00">fleksje</text>
</g>
<!-- L_ATOM&#45;&gt;fleksje_hub -->
<g id="edge4" class="edge">
<title>L_ATOM-&gt;fleksje_hub</title>
<path fill="none" stroke="black" d="M518.32,-178.73C491.07,-153.67 448.25,-117.63 405.38,-95 393.38,-88.67 379.43,-83.68 366.75,-79.93"/>
<polygon fill="black" stroke="black" points="515.8,-181.16 525.5,-185.42 520.57,-176.04 515.8,-181.16"/>
<polygon fill="black" stroke="black" points="368.04,-76.65 357.47,-77.35 366.17,-83.4 368.04,-76.65"/>
</g>
<!-- A_FORMY -->
<g id="node5" class="node">
<title>A_FORMY</title>
<polygon fill="#ffffff" stroke="black" points="685.71,-165.4 685.71,-248.6 795.84,-248.6 795.84,-165.4 685.71,-165.4"/>
<text xml:space="preserve" text-anchor="middle" x="740.77" y="-232" font-family="Arial" font-size="14.00">ALLONIMY</text>
<text xml:space="preserve" text-anchor="middle" x="740.77" y="-215.2" font-family="Arial" font-size="14.00">(dla onimów)</text>
<polyline fill="none" stroke="black" points="685.71,-207 795.84,-207"/>
<text xml:space="preserve" text-anchor="middle" x="740.77" y="-190.4" font-family="Arial" font-size="14.00">ALLOLEKSY</text>
<text xml:space="preserve" text-anchor="middle" x="740.77" y="-173.6" font-family="Arial" font-size="14.00">(dla leksemów)</text>
</g>
<!-- A_FORMY&#45;&gt;L_ATOM -->
<g id="edge3" class="edge">
<title>A_FORMY-&gt;L_ATOM</title>
<path fill="none" stroke="black" d="M673.9,-207C659.86,-207 644.86,-207 630.33,-207"/>
<polygon fill="black" stroke="black" points="673.73,-210.5 683.73,-207 673.73,-203.5 673.73,-210.5"/>
<polygon fill="black" stroke="black" points="620.54,-207 630.54,-202.5 624.32,-207 630.54,-207 630.54,-207 630.54,-207 624.32,-207 630.54,-211.5 620.54,-207"/>
</g>
<!-- translacje -->
<g id="node8" class="node">
<title>translacje</title>
<polygon fill="#fff9c4" stroke="black" points="1002.07,-225 832.84,-225 832.84,-189 1002.07,-189 1002.07,-225"/>
<text xml:space="preserve" text-anchor="middle" x="917.45" y="-202.8" font-family="Arial" font-size="14.00">WARIANTY JĘZYKOWE</text>
</g>
<!-- translacje&#45;&gt;A_FORMY -->
<g id="edge2" class="edge">
<title>translacje-&gt;A_FORMY</title>
<path fill="none" stroke="black" d="M821.1,-207C816.39,-207 811.72,-207 807.13,-207"/>
<polygon fill="black" stroke="black" points="820.93,-210.5 830.93,-207 820.93,-203.5 820.93,-210.5"/>
<polygon fill="black" stroke="black" points="807.45,-203.5 797.45,-207 807.45,-210.5 807.45,-203.5"/>
</g>
<!-- fleksje_hub&#45;&gt;F_ATOM -->
<g id="edge5" class="edge">
<title>fleksje_hub-&gt;F_ATOM</title>
<path fill="none" stroke="black" d="M299.68,-71C272.62,-71 229.83,-71 192.31,-71"/>
<polygon fill="black" stroke="black" points="192.38,-67.5 182.38,-71 192.38,-74.5 192.38,-67.5"/>
</g>
</g>
</svg>